<svg width="227" height="24" viewBox="0 0 227 24" fill="none" xmlns="http://www.w3.org/2000/svg">
<path d="M10.3711 13.5234C10.3711 12.8594 10.1367 12.3516 9.66797 12C9.19922 11.6406 8.35547 11.2656 7.13672 10.875C5.91797 10.4766 4.95312 10.0859 4.24219 9.70312C2.30469 8.65625 1.33594 7.24609 1.33594 5.47266C1.33594 4.55078 1.59375 3.73047 2.10938 3.01172C2.63281 2.28516 3.37891 1.71875 4.34766 1.3125C5.32422 0.90625 6.41797 0.703125 7.62891 0.703125C8.84766 0.703125 9.93359 0.925781 10.8867 1.37109C11.8398 1.80859 12.5781 2.42969 13.1016 3.23438C13.6328 4.03906 13.8984 4.95312 13.8984 5.97656H10.3828C10.3828 5.19531 10.1367 4.58984 9.64453 4.16016C9.15234 3.72266 8.46094 3.50391 7.57031 3.50391C6.71094 3.50391 6.04297 3.6875 5.56641 4.05469C5.08984 4.41406 4.85156 4.89062 4.85156 5.48438C4.85156 6.03906 5.12891 6.50391 5.68359 6.87891C6.24609 7.25391 7.07031 7.60547 8.15625 7.93359C10.1562 8.53516 11.6133 9.28125 12.5273 10.1719C13.4414 11.0625 13.8984 12.1719 13.8984 13.5C13.8984 14.9766 13.3398 16.1367 12.2227 16.9805C11.1055 17.8164 9.60156 18.2344 7.71094 18.2344C6.39844 18.2344 5.20312 17.9961 4.125 17.5195C3.04688 17.0352 2.22266 16.375 1.65234 15.5391C1.08984 14.7031 0.808594 13.7344 0.808594 12.6328H4.33594C4.33594 14.5156 5.46094 15.457 7.71094 15.457C8.54688 15.457 9.19922 15.2891 9.66797 14.9531C10.1367 14.6094 10.3711 14.1328 10.3711 13.5234ZM15.5391 11.543C15.5391 10.2852 15.7812 9.16406 16.2656 8.17969C16.75 7.19531 17.4453 6.43359 18.3516 5.89453C19.2656 5.35547 20.3242 5.08594 21.5273 5.08594C23.2383 5.08594 24.6328 5.60938 25.7109 6.65625C26.7969 7.70312 27.4023 9.125 27.5273 10.9219L27.5508 11.7891C27.5508 13.7344 27.0078 15.2969 25.9219 16.4766C24.8359 17.6484 23.3789 18.2344 21.5508 18.2344C19.7227 18.2344 18.2617 17.6484 17.168 16.4766C16.082 15.3047 15.5391 13.7109 15.5391 11.6953V11.543ZM18.9258 11.7891C18.9258 12.9922 19.1523 13.9141 19.6055 14.5547C20.0586 15.1875 20.707 15.5039 21.5508 15.5039C22.3711 15.5039 23.0117 15.1914 23.4727 14.5664C23.9336 13.9336 24.1641 12.9258 24.1641 11.543C24.1641 10.3633 23.9336 9.44922 23.4727 8.80078C23.0117 8.15234 22.3633 7.82812 21.5273 7.82812C20.6992 7.82812 20.0586 8.15234 19.6055 8.80078C19.1523 9.44141 18.9258 10.4375 18.9258 11.7891ZM34.9102 15.5039C35.5352 15.5039 36.043 15.332 36.4336 14.9883C36.8242 14.6445 37.0273 14.1875 37.043 13.6172H40.2188C40.2109 14.4766 39.9766 15.2656 39.5156 15.9844C39.0547 16.6953 38.4219 17.25 37.6172 17.6484C36.8203 18.0391 35.9375 18.2344 34.9688 18.2344C33.1562 18.2344 31.7266 17.6602 30.6797 16.5117C29.6328 15.3555 29.1094 13.7617 29.1094 11.7305V11.5078C29.1094 9.55469 29.6289 7.99609 30.668 6.83203C31.707 5.66797 33.1328 5.08594 34.9453 5.08594C36.5312 5.08594 37.8008 5.53906 38.7539 6.44531C39.7148 7.34375 40.2031 8.54297 40.2188 10.043H37.043C37.0273 9.38672 36.8242 8.85547 36.4336 8.44922C36.043 8.03516 35.5273 7.82812 34.8867 7.82812C34.0977 7.82812 33.5 8.11719 33.0938 8.69531C32.6953 9.26562 32.4961 10.1953 32.4961 11.4844V11.8359C32.4961 13.1406 32.6953 14.0781 33.0938 14.6484C33.4922 15.2188 34.0977 15.5039 34.9102 15.5039ZM45.7266 18H42.3281V5.32031H45.7266V18ZM42.1289 2.03906C42.1289 1.53125 42.2969 1.11328 42.6328 0.785156C42.9766 0.457031 43.4414 0.292969 44.0273 0.292969C44.6055 0.292969 45.0664 0.457031 45.4102 0.785156C45.7539 1.11328 45.9258 1.53125 45.9258 2.03906C45.9258 2.55469 45.75 2.97656 45.3984 3.30469C45.0547 3.63281 44.5977 3.79688 44.0273 3.79688C43.457 3.79688 42.9961 3.63281 42.6445 3.30469C42.3008 2.97656 42.1289 2.55469 42.1289 2.03906ZM55.875 18C55.7188 17.6953 55.6055 17.3164 55.5352 16.8633C54.7148 17.7773 53.6484 18.2344 52.3359 18.2344C51.0938 18.2344 50.0625 17.875 49.2422 17.1562C48.4297 16.4375 48.0234 15.5312 48.0234 14.4375C48.0234 13.0938 48.5195 12.0625 49.5117 11.3438C50.5117 10.625 51.9531 10.2617 53.8359 10.2539H55.3945V9.52734C55.3945 8.94141 55.2422 8.47266 54.9375 8.12109C54.6406 7.76953 54.168 7.59375 53.5195 7.59375C52.9492 7.59375 52.5 7.73047 52.1719 8.00391C51.8516 8.27734 51.6914 8.65234 51.6914 9.12891H48.3047C48.3047 8.39453 48.5312 7.71484 48.9844 7.08984C49.4375 6.46484 50.0781 5.97656 50.9062 5.625C51.7344 5.26562 52.6641 5.08594 53.6953 5.08594C55.2578 5.08594 56.4961 5.48047 57.4102 6.26953C58.332 7.05078 58.793 8.15234 58.793 9.57422V15.0703C58.8008 16.2734 58.9688 17.1836 59.2969 17.8008V18H55.875ZM53.0742 15.6445C53.5742 15.6445 54.0352 15.5352 54.457 15.3164C54.8789 15.0898 55.1914 14.7891 55.3945 14.4141V12.2344H54.1289C52.4336 12.2344 51.5312 12.8203 51.4219 13.9922L51.4102 14.1914C51.4102 14.6133 51.5586 14.9609 51.8555 15.2344C52.1523 15.5078 52.5586 15.6445 53.0742 15.6445ZM64.9688 18H61.5703V0H64.9688V18ZM78.5625 0.9375L82.9453 13.3125L87.3047 0.9375H91.9219V18H88.3945V13.3359L88.7461 5.28516L84.1406 18H81.7266L77.1328 5.29688L77.4844 13.3359V18H73.9688V0.9375H78.5625ZM100.605 18.2344C98.7461 18.2344 97.2305 17.6641 96.0586 16.5234C94.8945 15.3828 94.3125 13.8633 94.3125 11.9648V11.6367C94.3125 10.3633 94.5586 9.22656 95.0508 8.22656C95.543 7.21875 96.2383 6.44531 97.1367 5.90625C98.043 5.35938 99.0742 5.08594 100.23 5.08594C101.965 5.08594 103.328 5.63281 104.32 6.72656C105.32 7.82031 105.82 9.37109 105.82 11.3789V12.7617H97.7461C97.8555 13.5898 98.1836 14.2539 98.7305 14.7539C99.2852 15.2539 99.9844 15.5039 100.828 15.5039C102.133 15.5039 103.152 15.0312 103.887 14.0859L105.551 15.9492C105.043 16.668 104.355 17.2305 103.488 17.6367C102.621 18.0352 101.66 18.2344 100.605 18.2344ZM100.219 7.82812C99.5469 7.82812 99 8.05469 98.5781 8.50781C98.1641 8.96094 97.8984 9.60938 97.7812 10.4531H102.492V10.1836C102.477 9.43359 102.273 8.85547 101.883 8.44922C101.492 8.03516 100.938 7.82812 100.219 7.82812ZM107.227 11.5664C107.227 9.58984 107.668 8.01562 108.551 6.84375C109.441 5.67188 110.656 5.08594 112.195 5.08594C113.43 5.08594 114.449 5.54688 115.254 6.46875V0H118.652V18H115.594L115.43 16.6523C114.586 17.707 113.5 18.2344 112.172 18.2344C110.68 18.2344 109.48 17.6484 108.574 16.4766C107.676 15.2969 107.227 13.6602 107.227 11.5664ZM110.613 11.8125C110.613 13 110.82 13.9102 111.234 14.543C111.648 15.1758 112.25 15.4922 113.039 15.4922C114.086 15.4922 114.824 15.0508 115.254 14.168V9.16406C114.832 8.28125 114.102 7.83984 113.062 7.83984C111.43 7.83984 110.613 9.16406 110.613 11.8125ZM124.852 18H121.453V5.32031H124.852V18ZM121.254 2.03906C121.254 1.53125 121.422 1.11328 121.758 0.785156C122.102 0.457031 122.566 0.292969 123.152 0.292969C123.73 0.292969 124.191 0.457031 124.535 0.785156C124.879 1.11328 125.051 1.53125 125.051 2.03906C125.051 2.55469 124.875 2.97656 124.523 3.30469C124.18 3.63281 123.723 3.79688 123.152 3.79688C122.582 3.79688 122.121 3.63281 121.77 3.30469C121.426 2.97656 121.254 2.55469 121.254 2.03906ZM135 18C134.844 17.6953 134.73 17.3164 134.66 16.8633C133.84 17.7773 132.773 18.2344 131.461 18.2344C130.219 18.2344 129.188 17.875 128.367 17.1562C127.555 16.4375 127.148 15.5312 127.148 14.4375C127.148 13.0938 127.645 12.0625 128.637 11.3438C129.637 10.625 131.078 10.2617 132.961 10.2539H134.52V9.52734C134.52 8.94141 134.367 8.47266 134.062 8.12109C133.766 7.76953 133.293 7.59375 132.645 7.59375C132.074 7.59375 131.625 7.73047 131.297 8.00391C130.977 8.27734 130.816 8.65234 130.816 9.12891H127.43C127.43 8.39453 127.656 7.71484 128.109 7.08984C128.562 6.46484 129.203 5.97656 130.031 5.625C130.859 5.26562 131.789 5.08594 132.82 5.08594C134.383 5.08594 135.621 5.48047 136.535 6.26953C137.457 7.05078 137.918 8.15234 137.918 9.57422V15.0703C137.926 16.2734 138.094 17.1836 138.422 17.8008V18H135ZM132.199 15.6445C132.699 15.6445 133.16 15.5352 133.582 15.3164C134.004 15.0898 134.316 14.7891 134.52 14.4141V12.2344H133.254C131.559 12.2344 130.656 12.8203 130.547 13.9922L130.535 14.1914C130.535 14.6133 130.684 14.9609 130.98 15.2344C131.277 15.5078 131.684 15.6445 132.199 15.6445ZM156.352 14.4844H150.188L149.016 18H145.277L151.629 0.9375H154.887L161.273 18H157.535L156.352 14.4844ZM151.137 11.6367H155.402L153.258 5.25L151.137 11.6367ZM162.152 11.5664C162.152 9.62109 162.613 8.05469 163.535 6.86719C164.465 5.67969 165.715 5.08594 167.285 5.08594C168.676 5.08594 169.758 5.5625 170.531 6.51562L170.672 5.32031H173.742V17.5781C173.742 18.6875 173.488 19.6523 172.98 20.4727C172.48 21.293 171.773 21.918 170.859 22.3477C169.945 22.7773 168.875 22.9922 167.648 22.9922C166.719 22.9922 165.812 22.8047 164.93 22.4297C164.047 22.0625 163.379 21.5859 162.926 21L164.426 18.9375C165.27 19.8828 166.293 20.3555 167.496 20.3555C168.395 20.3555 169.094 20.1133 169.594 19.6289C170.094 19.1523 170.344 18.4727 170.344 17.5898V16.9102C169.562 17.793 168.535 18.2344 167.262 18.2344C165.738 18.2344 164.504 17.6406 163.559 16.4531C162.621 15.2578 162.152 13.6758 162.152 11.707V11.5664ZM165.539 11.8125C165.539 12.9609 165.77 13.8633 166.23 14.5195C166.691 15.168 167.324 15.4922 168.129 15.4922C169.16 15.4922 169.898 15.1055 170.344 14.332V9C169.891 8.22656 169.16 7.83984 168.152 7.83984C167.34 7.83984 166.699 8.17188 166.23 8.83594C165.77 9.5 165.539 10.4922 165.539 11.8125ZM182.191 18.2344C180.332 18.2344 178.816 17.6641 177.645 16.5234C176.48 15.3828 175.898 13.8633 175.898 11.9648V11.6367C175.898 10.3633 176.145 9.22656 176.637 8.22656C177.129 7.21875 177.824 6.44531 178.723 5.90625C179.629 5.35938 180.66 5.08594 181.816 5.08594C183.551 5.08594 184.914 5.63281 185.906 6.72656C186.906 7.82031 187.406 9.37109 187.406 11.3789V12.7617H179.332C179.441 13.5898 179.77 14.2539 180.316 14.7539C180.871 15.2539 181.57 15.5039 182.414 15.5039C183.719 15.5039 184.738 15.0312 185.473 14.0859L187.137 15.9492C186.629 16.668 185.941 17.2305 185.074 17.6367C184.207 18.0352 183.246 18.2344 182.191 18.2344ZM181.805 7.82812C181.133 7.82812 180.586 8.05469 180.164 8.50781C179.75 8.96094 179.484 9.60938 179.367 10.4531H184.078V10.1836C184.062 9.43359 183.859 8.85547 183.469 8.44922C183.078 8.03516 182.523 7.82812 181.805 7.82812ZM192.457 5.32031L192.562 6.78516C193.469 5.65234 194.684 5.08594 196.207 5.08594C197.551 5.08594 198.551 5.48047 199.207 6.26953C199.863 7.05859 200.199 8.23828 200.215 9.80859V18H196.828V9.89062C196.828 9.17188 196.672 8.65234 196.359 8.33203C196.047 8.00391 195.527 7.83984 194.801 7.83984C193.848 7.83984 193.133 8.24609 192.656 9.05859V18H189.27V5.32031H192.457ZM208.066 15.5039C208.691 15.5039 209.199 15.332 209.59 14.9883C209.98 14.6445 210.184 14.1875 210.199 13.6172H213.375C213.367 14.4766 213.133 15.2656 212.672 15.9844C212.211 16.6953 211.578 17.25 210.773 17.6484C209.977 18.0391 209.094 18.2344 208.125 18.2344C206.312 18.2344 204.883 17.6602 203.836 16.5117C202.789 15.3555 202.266 13.7617 202.266 11.7305V11.5078C202.266 9.55469 202.785 7.99609 203.824 6.83203C204.863 5.66797 206.289 5.08594 208.102 5.08594C209.688 5.08594 210.957 5.53906 211.91 6.44531C212.871 7.34375 213.359 8.54297 213.375 10.043H210.199C210.184 9.38672 209.98 8.85547 209.59 8.44922C209.199 8.03516 208.684 7.82812 208.043 7.82812C207.254 7.82812 206.656 8.11719 206.25 8.69531C205.852 9.26562 205.652 10.1953 205.652 11.4844V11.8359C205.652 13.1406 205.852 14.0781 206.25 14.6484C206.648 15.2188 207.254 15.5039 208.066 15.5039ZM220.043 13.207L222.387 5.32031H226.02L220.922 19.9688L220.641 20.6367C219.883 22.293 218.633 23.1211 216.891 23.1211C216.398 23.1211 215.898 23.0469 215.391 22.8984V20.332L215.906 20.3438C216.547 20.3438 217.023 20.2461 217.336 20.0508C217.656 19.8555 217.906 19.5312 218.086 19.0781L218.484 18.0352L214.043 5.32031H217.688L220.043 13.207Z" fill="white"/>
</svg>
