<svg width="650" height="600" viewBox="0 0 650 600" fill="none" xmlns="http://www.w3.org/2000/svg">
<g clip-path="url(#clip0)">
<path d="M377.159 586.688C372.329 591.244 367.094 595.004 361.569 597.884C360.122 598.645 358.667 599.354 357.187 600H281.669C281.364 599.302 281.066 598.593 280.761 597.884C274.634 583.45 269.078 568.455 267.503 552.148C265.613 532.571 270.912 510.402 284.009 500.783C285.724 499.524 287.542 498.523 289.427 497.799C290.208 497.481 291.003 497.227 291.807 497.005C296.717 495.571 301.828 495.884 306.615 497.911C311.402 499.939 315.692 503.608 319.045 508.541C322.397 513.474 324.691 519.494 325.691 525.98C326.69 532.467 326.359 539.187 324.731 545.45C335.834 530.466 333.76 506.169 329.932 485.862C326.097 465.556 321.45 442.952 329.257 424.709C333.591 414.561 341.22 408.265 349.775 405.725C350.04 405.651 350.306 405.577 350.563 405.513C360.762 402.794 371.365 405.239 380.254 412.36C396.623 425.926 405.025 451.672 407.75 476.878C412.148 517.45 402.42 562.72 377.159 586.688Z" fill="#536DFE"/>
<path d="M297.733 509.937C303.779 526.093 305.707 544.383 303.232 562.095C301.365 575.082 297.249 587.329 291.204 597.884C290.794 598.603 290.376 599.312 289.95 600H286.967C287.426 599.312 287.876 598.603 288.302 597.884C293.792 588.882 297.772 578.453 299.981 567.282C302.19 556.111 302.577 544.451 301.117 533.069C299.386 520.265 295.38 508.18 289.427 497.799C290.208 497.482 291.003 497.228 291.807 497.005C294.071 501.075 296.054 505.402 297.733 509.937Z" fill="white"/>
<path d="M369.979 521.651C369.334 530.599 367.7 539.376 365.131 547.704C362.762 555.073 359.57 561.936 355.66 568.063C347.677 580.709 337.112 590.222 325.639 596.55C324.803 597.016 323.959 597.46 323.107 597.883C321.627 598.645 320.132 599.344 318.628 600H310.484C312.406 599.365 314.319 598.656 316.208 597.883C320.701 596.044 325.084 593.769 329.321 591.079C340.093 584.359 349.447 574.261 356.56 561.672C364.19 547.809 367.559 531.143 368.138 514.201C368.749 496.074 366.956 477.619 363.812 459.979C360.604 441.898 355.725 424.403 349.285 407.884C349.14 407.51 349.111 407.077 349.202 406.675C349.293 406.273 349.498 405.933 349.775 405.725C350.007 405.523 350.289 405.447 350.563 405.513C350.697 405.558 350.821 405.643 350.927 405.76C351.033 405.877 351.117 406.024 351.174 406.19C351.97 408.233 352.75 410.275 353.497 412.339C359.741 429.542 364.34 447.698 367.189 466.391C369.947 484.423 371.426 503.291 369.979 521.651Z" fill="white"/>
<path d="M34.1451 299.471C27.4666 299.471 20.938 296.864 15.3849 291.981C9.83188 287.097 5.50381 280.156 2.94803 272.035C0.392249 263.913 -0.276451 254.977 1.02648 246.356C2.3294 237.734 5.54544 229.815 10.2679 223.6C14.9904 217.384 21.0072 213.151 27.5574 211.436C34.1077 209.721 40.8972 210.601 47.0674 213.965C53.2376 217.329 58.5114 223.026 62.2218 230.334C65.9322 237.643 67.9126 246.236 67.9126 255.026C67.9025 266.81 64.3416 278.107 58.0111 286.439C51.6807 294.771 43.0977 299.458 34.1451 299.471ZM34.1451 212.698C27.7846 212.698 21.5669 215.181 16.2783 219.832C10.9897 224.483 6.86769 231.094 4.43361 238.828C1.99953 246.563 1.36267 255.073 2.60355 263.284C3.84443 271.495 6.90733 279.037 11.4049 284.957C15.9025 290.877 21.6328 294.908 27.8711 296.541C34.1095 298.174 40.5757 297.336 46.452 294.132C52.3284 290.929 57.3511 285.503 60.8848 278.543C64.4185 271.582 66.3046 263.398 66.3046 255.026C66.295 243.804 62.9037 233.045 56.8747 225.11C50.8457 217.175 42.6714 212.711 34.1451 212.698Z" fill="#3F3D56"/>
<path d="M170.823 156.614C164.145 156.614 157.616 154.007 152.063 149.124C146.51 144.24 142.182 137.299 139.626 129.177C137.07 121.056 136.402 112.12 137.704 103.499C139.007 94.8773 142.223 86.958 146.946 80.7423C151.668 74.5267 157.685 70.2938 164.235 68.5789C170.786 66.864 177.575 67.7441 183.745 71.108C189.916 74.4719 195.189 80.1684 198.9 87.4773C202.61 94.7861 204.591 103.379 204.591 112.169C204.58 123.953 201.02 135.249 194.689 143.582C188.359 151.914 179.776 156.6 170.823 156.614ZM170.823 69.8413C164.463 69.8413 158.245 72.3238 152.956 76.9748C147.668 81.6259 143.546 88.2366 141.112 95.9711C138.678 103.706 138.041 112.216 139.282 120.427C140.522 128.638 143.585 136.18 148.083 142.1C152.58 148.019 158.311 152.051 164.549 153.684C170.787 155.317 177.254 154.479 183.13 151.275C189.006 148.072 194.029 142.646 197.563 135.686C201.097 128.725 202.983 120.541 202.983 112.169C202.973 100.947 199.582 90.1882 193.553 82.2529C187.524 74.3176 179.349 69.854 170.823 69.8413Z" fill="#3F3D56"/>
<path d="M317.149 88.8889C310.47 88.8889 303.942 86.2823 298.389 81.3987C292.836 76.515 288.508 69.5738 285.952 61.4526C283.396 53.3315 282.727 44.3952 284.03 35.7738C285.333 27.1524 288.549 19.2332 293.272 13.0175C297.994 6.80182 304.011 2.56891 310.561 0.854007C317.112 -0.860892 323.901 0.0192599 330.071 3.38315C336.241 6.74705 341.515 12.4436 345.226 19.7524C348.936 27.0613 350.916 35.6542 350.916 44.4445C350.906 56.2278 347.345 67.5246 341.015 75.8567C334.685 84.1888 326.102 88.8756 317.149 88.8889ZM317.149 2.11642C310.788 2.11642 304.571 4.59891 299.282 9.24997C293.993 13.901 289.872 20.5118 287.437 28.2462C285.003 35.9807 284.367 44.4914 285.607 52.7023C286.848 60.9131 289.911 68.4552 294.409 74.3749C298.906 80.2946 304.637 84.326 310.875 85.9592C317.113 87.5924 323.579 86.7542 329.456 83.5505C335.332 80.3468 340.355 74.9215 343.889 67.9607C347.422 60.9999 349.308 52.8162 349.308 44.4445C349.299 33.2223 345.908 22.4633 339.879 14.528C333.85 6.59269 325.675 2.12908 317.149 2.11642Z" fill="#3F3D56"/>
<path d="M473.123 158.73C466.444 158.73 459.916 156.124 454.362 151.24C448.809 146.356 444.481 139.415 441.926 131.294C439.37 123.173 438.701 114.236 440.004 105.615C441.307 96.9937 444.523 89.0745 449.245 82.8588C453.968 76.6431 459.985 72.4102 466.535 70.6953C473.085 68.9804 479.875 69.8606 486.045 73.2245C492.215 76.5884 497.489 82.2849 501.199 89.5938C504.91 96.9026 506.89 105.495 506.89 114.286C506.88 126.069 503.319 137.366 496.989 145.698C490.658 154.03 482.075 158.717 473.123 158.73ZM473.123 71.9577C466.762 71.9577 460.544 74.4402 455.256 79.0913C449.967 83.7424 445.845 90.3531 443.411 98.0875C440.977 105.822 440.34 114.333 441.581 122.544C442.822 130.754 445.885 138.297 450.382 144.216C454.88 150.136 460.61 154.167 466.849 155.801C473.087 157.434 479.553 156.595 485.43 153.392C491.306 150.188 496.329 144.763 499.862 137.802C503.396 130.841 505.282 122.657 505.282 114.286C505.273 103.064 501.881 92.3046 495.852 84.3693C489.823 76.434 481.649 71.9704 473.123 71.9577Z" fill="#3F3D56"/>
<path d="M616.232 265.608C609.554 265.608 603.025 263.002 597.472 258.118C591.919 253.235 587.591 246.293 585.035 238.172C582.48 230.051 581.811 221.115 583.114 212.493C584.417 203.872 587.633 195.953 592.355 189.737C597.078 183.521 603.095 179.288 609.645 177.573C616.195 175.859 622.985 176.739 629.155 180.103C635.325 183.467 640.599 189.163 644.309 196.472C648.02 203.781 650 212.374 650 221.164C649.99 232.947 646.429 244.244 640.099 252.576C633.768 260.908 625.185 265.595 616.232 265.608ZM616.232 178.836C609.872 178.836 603.654 181.318 598.366 185.969C593.077 190.621 588.955 197.231 586.521 204.966C584.087 212.7 583.45 221.211 584.691 229.422C585.932 237.633 588.995 245.175 593.492 251.094C597.99 257.014 603.72 261.045 609.958 262.679C616.197 264.312 622.663 263.474 628.539 260.27C634.416 257.066 639.438 251.641 642.972 244.68C646.506 237.719 648.392 229.536 648.392 221.164C648.382 209.942 644.991 199.183 638.962 191.247C632.933 183.312 624.759 178.849 616.232 178.836Z" fill="#3F3D56"/>
<path d="M190.119 99.9977L194.139 98.9395C194.139 98.9395 190.762 103.913 190.119 104.231C190.059 105.287 190.059 106.348 190.119 107.405C182.401 151.003 153.939 131.744 153.939 131.744C164.311 132.061 165.195 126.453 165.195 126.453C159.165 125.289 157.959 120.104 157.959 120.104C158.5 120.479 159.128 120.579 159.721 120.384C160.314 120.188 160.832 119.712 161.175 119.045C154.663 116.823 155.547 108.463 155.547 108.463C156.708 109.566 158.065 110.259 159.487 110.474C158.763 109.31 152.653 99.6803 156.351 94.7067C156.351 94.7067 160.854 105.289 172.672 106.241L173.476 106.029C173.34 105.267 173.285 104.484 173.316 103.701C173.316 100.755 174.205 97.9284 175.788 95.8447C177.371 93.761 179.518 92.5903 181.757 92.5903C187.385 92.5903 188.591 96.8231 188.591 96.8231L192.611 93.6485C192.531 93.6485 192.129 98.9395 190.119 99.9977Z" fill="#3F3D56"/>
<path d="M446.856 571.04L455.707 576.75L476.652 534.535L463.59 526.108L446.856 571.04Z" fill="#FFB8B8"/>
<path d="M446.015 565.781L463.445 577.026L463.446 577.026C464.904 577.968 466.208 579.278 467.282 580.882C468.356 582.486 469.179 584.353 469.705 586.376C470.231 588.399 470.449 590.539 470.346 592.673C470.244 594.807 469.823 596.893 469.108 598.813L468.931 599.288L440.393 580.876L446.015 565.781Z" fill="#2F2E41"/>
<path d="M534.566 590.945L544.423 590.944L549.112 540.905H534.564L534.566 590.945Z" fill="#FFB8B8"/>
<path d="M532.052 582.477L551.463 582.476H551.464C553.088 582.476 554.697 582.897 556.198 583.715C557.699 584.533 559.062 585.732 560.211 587.244C561.36 588.756 562.271 590.551 562.893 592.526C563.514 594.502 563.834 596.619 563.834 598.757V599.286L532.052 599.288L532.052 582.477Z" fill="#2F2E41"/>
<path d="M513.394 245.597C524.299 245.597 533.14 233.961 533.14 219.606C533.14 205.252 524.299 193.616 513.394 193.616C502.488 193.616 493.647 205.252 493.647 219.606C493.647 233.961 502.488 245.597 513.394 245.597Z" fill="#FFB8B8"/>
<path d="M533.057 574.44C532.126 574.439 531.231 573.964 530.558 573.116C529.886 572.268 529.488 571.111 529.447 569.886L521.814 436.17C521.805 435.82 521.709 435.483 521.539 435.213C521.37 434.942 521.137 434.753 520.878 434.675C520.618 434.597 520.346 434.634 520.104 434.781C519.862 434.927 519.664 435.175 519.54 435.485L470.713 558.176C470.27 559.276 469.518 560.106 468.618 560.489C467.717 560.872 466.739 560.777 465.89 560.226L452.279 551.268C451.425 550.703 450.775 549.717 450.47 548.525C450.166 547.333 450.231 546.03 450.652 544.901L479.788 467.196L499.086 408.989C506.534 389.678 514.444 379.726 523.267 378.565C532.318 377.376 541.984 385.567 552.823 403.61L552.911 403.757L552.909 403.945L551.301 567.286C551.304 568.472 550.969 569.617 550.361 570.493C549.754 571.37 548.919 571.915 548.021 572.02L533.411 574.418C533.293 574.433 533.175 574.44 533.057 574.44Z" fill="#2F2E41"/>
<path d="M492.552 418.389C493.627 417.517 494.543 416.344 495.236 414.955C495.929 413.566 496.383 411.994 496.564 410.349C496.746 408.705 496.651 407.028 496.287 405.436C495.923 403.845 495.298 402.378 494.457 401.139L497.434 297.588L482.962 299.962L481.742 400.702C480.254 402.701 479.375 405.348 479.271 408.143C479.167 410.937 479.846 413.685 481.178 415.865C482.511 418.046 484.405 419.507 486.501 419.972C488.597 420.437 490.75 419.874 492.552 418.389Z" fill="#FFB8B8"/>
<path d="M501.707 315.896L482.273 312.989C481.72 312.907 481.187 312.668 480.71 312.29C480.234 311.911 479.825 311.402 479.511 310.797C479.197 310.192 478.986 309.505 478.893 308.783C478.799 308.061 478.824 307.321 478.968 306.613L483.985 281.812C484.323 278.091 485.768 274.698 488.003 272.377C490.238 270.056 493.082 268.996 495.91 269.43C498.738 269.864 501.32 271.757 503.09 274.692C504.859 277.628 505.672 281.367 505.35 285.091L506.014 310.659C506.033 311.391 505.932 312.12 505.718 312.796C505.503 313.471 505.18 314.079 504.772 314.576C504.363 315.073 503.878 315.448 503.349 315.676C502.82 315.904 502.26 315.979 501.707 315.896V315.896Z" fill="#536DFE"/>
<path d="M585.423 250.711C585.324 251.282 585.26 251.862 585.231 252.447L550.693 278.671L542.299 272.31L533.349 287.73L547.379 300.892C548.513 301.955 549.878 302.506 551.269 302.461C552.66 302.417 554.003 301.779 555.096 300.644L590.71 263.665C592.317 264.448 594.067 264.568 595.728 264.01C597.388 263.452 598.881 262.242 600.006 260.54C601.131 258.839 601.836 256.726 602.027 254.485C602.218 252.243 601.885 249.978 601.074 247.991C600.263 246.004 599.012 244.389 597.486 243.36C595.961 242.332 594.234 241.94 592.535 242.235C590.836 242.53 589.245 243.499 587.975 245.013C586.705 246.528 585.814 248.515 585.423 250.711Z" fill="#FFB8B8"/>
<path d="M549.539 279.913L538.377 298.954C538.059 299.496 537.656 299.941 537.196 300.26C536.736 300.578 536.229 300.763 535.71 300.8C535.191 300.837 534.672 300.727 534.188 300.477C533.704 300.226 533.267 299.841 532.906 299.349L520.27 282.077C518.171 279.924 516.808 276.762 516.478 273.287C516.148 269.811 516.879 266.306 518.511 263.539C520.143 260.772 522.542 258.971 525.182 258.529C527.821 258.088 530.487 259.042 532.592 261.184L548.441 272.848C548.895 273.183 549.289 273.642 549.595 274.194C549.902 274.746 550.115 275.379 550.219 276.05C550.323 276.72 550.316 277.412 550.199 278.079C550.082 278.746 549.857 279.371 549.539 279.913H549.539Z" fill="#536DFE"/>
<path d="M558.644 411.707L537.215 274.322C536.196 267.792 533.295 262.036 529.119 258.264C524.944 254.491 519.82 252.995 514.824 254.091L507.677 255.659C505.194 256.204 502.818 257.387 500.682 259.14C498.547 260.894 496.695 263.184 495.232 265.88C492.907 270.163 491.342 275.077 490.65 280.261C489.958 285.445 490.157 290.768 491.233 295.837L503.062 351.557L494.284 411.252C494.186 411.914 494.209 412.598 494.353 413.245C494.496 413.893 494.755 414.486 495.108 414.974C495.462 415.463 495.898 415.834 496.382 416.055C496.866 416.277 497.384 416.343 497.891 416.247C502.286 415.42 509.53 414.238 517.85 413.595L522.358 390.71L524.191 413.231C534.412 412.855 545.507 413.514 554.659 416.644C555.189 416.83 555.746 416.835 556.277 416.659C556.809 416.482 557.297 416.13 557.696 415.636C558.095 415.142 558.392 414.521 558.558 413.834C558.724 413.146 558.754 412.414 558.644 411.707Z" fill="#536DFE"/>
<path d="M520.992 213.824C526.067 218.396 532.731 223.096 537.915 218.227C541.319 215.03 542.391 209.11 541.011 203.915C538.529 194.572 531.709 190.459 525.188 187.307C516.711 183.208 507.48 179.948 498.728 182.883C489.976 185.818 482.242 196.971 483.822 208.674C485.092 218.086 491.837 225.918 490.88 235.393C489.916 244.93 481.767 249.95 474.574 251.654C467.38 253.359 459.33 253.906 454.16 260.707C447.565 269.383 449.212 284.891 455.417 294.051C461.623 303.211 470.988 307.363 480.063 310.186C492.086 313.926 505.09 315.891 516.509 309.685C527.928 303.478 536.814 286.77 533.506 271.103C532.109 264.485 528.818 258.892 525.637 253.447C522.455 248.002 519.234 242.309 518.021 235.628C517.01 230.061 517.758 223.598 520.563 219.422C521.073 218.691 521.394 217.766 521.48 216.78C521.566 215.794 521.412 214.798 521.041 213.934L520.992 213.824Z" fill="#2F2E41"/>
<path d="M326.346 22.458C328.595 22.4668 330.751 23.6468 332.341 25.7403C333.932 27.8337 334.828 30.6705 334.835 33.631V55.9747C334.828 58.9352 333.932 61.772 332.341 63.8654C330.751 65.9589 328.595 67.1389 326.346 67.1477H309.37C307.121 67.1389 304.965 65.9589 303.375 63.8654C301.784 61.772 300.888 58.9352 300.881 55.9747V33.631C300.888 30.6705 301.784 27.8337 303.375 25.7403C304.965 23.6468 307.121 22.4668 309.37 22.458H326.346ZM326.346 17.9895H309.37C306.221 18.0016 303.204 19.6534 300.977 22.5841C298.75 25.5149 297.495 29.4863 297.486 33.631V55.9747C297.495 60.1194 298.75 64.0908 300.977 67.0216C303.204 69.9523 306.221 71.6041 309.37 71.6162H326.346C329.495 71.6041 332.512 69.9523 334.739 67.0216C336.966 64.0908 338.221 60.1194 338.23 55.9747V33.631C338.221 29.4863 336.966 25.5149 334.739 22.5841C332.512 19.6534 329.495 18.0016 326.346 17.9895Z" fill="#3F3D56"/>
<path d="M328.892 33.6311C328.219 33.6292 327.574 33.2755 327.098 32.6477C326.623 32.0199 326.356 31.1694 326.357 30.283C326.358 29.3966 326.626 28.5469 327.102 27.9204C327.579 27.294 328.224 26.9421 328.898 26.9421C329.571 26.9421 330.217 27.294 330.694 27.9204C331.17 28.5469 331.438 29.3966 331.439 30.283C331.44 31.1694 331.173 32.0199 330.698 32.6477C330.222 33.2755 329.577 33.6292 328.903 33.6311C328.9 33.6311 328.896 33.6311 328.892 33.6311Z" fill="#3F3D56"/>
<path d="M317.858 35.8645C319.201 35.8645 320.514 36.3887 321.631 37.3708C322.748 38.353 323.618 39.7489 324.132 41.3822C324.646 43.0154 324.78 44.8126 324.518 46.5464C324.256 48.2802 323.61 49.8729 322.66 51.1229C321.71 52.3729 320.5 53.2242 319.183 53.5691C317.865 53.914 316.5 53.7369 315.259 53.0604C314.018 52.3839 312.958 51.2383 312.212 49.7684C311.465 48.2986 311.067 46.5705 311.067 44.8027C311.067 42.4321 311.782 40.1586 313.056 38.4824C314.33 36.8062 316.057 35.8645 317.858 35.8645ZM317.858 31.396C315.843 31.396 313.874 32.1823 312.199 33.6554C310.524 35.1285 309.218 37.2224 308.447 39.6721C307.676 42.1219 307.475 44.8175 307.868 47.4181C308.261 50.0188 309.231 52.4076 310.655 54.2826C312.08 56.1575 313.895 57.4344 315.871 57.9517C317.847 58.469 319.895 58.2035 321.756 57.1888C323.617 56.1741 325.208 54.4557 326.327 52.251C327.446 50.0463 328.044 47.4542 328.044 44.8027C328.044 41.247 326.971 37.837 325.06 35.3227C323.15 32.8085 320.559 31.396 317.858 31.396V31.396Z" fill="#3F3D56"/>
<path d="M131.185 585.959L121.591 582.983L125.744 532.861L139.904 537.253L131.185 585.959Z" fill="#FFB8B8"/>
<path d="M131.441 598.958L100.506 589.365L100.598 588.85C100.97 586.769 101.651 584.805 102.6 583.07C103.549 581.335 104.749 579.862 106.13 578.737C107.512 577.613 109.048 576.857 110.651 576.513C112.255 576.17 113.894 576.245 115.475 576.736L115.476 576.736L134.37 582.595L131.441 598.958Z" fill="#2F2E41"/>
<path d="M168.572 586.382H158.715L154.026 536.342L168.574 536.343L168.572 586.382Z" fill="#FFB8B8"/>
<path d="M171.086 598.958L139.304 598.957V598.427C139.304 596.289 139.624 594.172 140.245 592.197C140.867 590.221 141.778 588.426 142.927 586.914C144.076 585.403 145.439 584.203 146.94 583.385C148.441 582.567 150.05 582.146 151.674 582.146H151.675L171.086 582.147L171.086 598.958Z" fill="#2F2E41"/>
<path d="M221.807 388.482C222.467 387.066 222.884 385.476 223.027 383.825C223.17 382.173 223.036 380.501 222.634 378.925C222.233 377.349 221.574 375.909 220.704 374.704C219.834 373.5 218.774 372.561 217.599 371.954L188.74 275.634L172.684 288.462L206.1 379.109C205.456 381.775 205.578 384.66 206.443 387.216C207.307 389.773 208.854 391.823 210.79 392.978C212.726 394.134 214.917 394.314 216.948 393.486C218.978 392.657 220.707 390.877 221.807 388.482Z" fill="#FFB8B8"/>
<path d="M194.873 291.563L176.53 300.5C176.008 300.754 175.451 300.857 174.896 300.802C174.341 300.748 173.802 300.536 173.314 300.182C172.827 299.828 172.404 299.34 172.073 298.751C171.742 298.162 171.511 297.487 171.396 296.77L167.38 271.654C166.407 268.133 166.535 264.247 167.735 260.848C168.935 257.45 171.111 254.817 173.784 253.527C176.457 252.236 179.409 252.393 181.995 253.963C184.58 255.534 186.586 258.389 187.574 261.904L196.924 284.332C197.192 284.974 197.351 285.685 197.391 286.416C197.431 287.146 197.351 287.88 197.157 288.566C196.962 289.252 196.657 289.875 196.263 290.392C195.869 290.909 195.395 291.309 194.873 291.563V291.563Z" fill="#536DFE"/>
<path d="M167.917 568.418C167.869 568.418 167.821 568.417 167.772 568.415L153.801 567.679C152.857 567.637 151.963 567.107 151.314 566.204C150.664 565.301 150.31 564.099 150.328 562.855L151.4 461.268C151.405 460.86 151.289 460.464 151.078 460.165C150.867 459.866 150.576 459.685 150.266 459.661C149.956 459.637 149.651 459.771 149.414 460.035C149.177 460.299 149.027 460.674 148.995 461.08L140.89 562.779C140.806 563.814 140.467 564.785 139.924 565.543C139.382 566.302 138.667 566.806 137.887 566.98L137.838 566.99L124.722 565.633C124.205 565.737 123.677 565.692 123.175 565.501C122.672 565.311 122.207 564.979 121.812 564.529C121.416 564.079 121.099 563.521 120.883 562.894C120.667 562.267 120.556 561.586 120.56 560.898L121.344 388.645L185.704 394.006L171.513 564.176C171.414 565.341 170.992 566.416 170.329 567.198C169.666 567.981 168.808 568.415 167.917 568.418Z" fill="#2F2E41"/>
<path d="M156.153 238.275C167.059 238.275 175.9 226.639 175.9 212.285C175.9 197.931 167.059 186.294 156.153 186.294C145.247 186.294 136.406 197.931 136.406 212.285C136.406 226.639 145.247 238.275 156.153 238.275Z" fill="#FFB8B8"/>
<path d="M182.504 401.591C182.413 401.591 182.322 401.586 182.23 401.578L122.748 395.85C121.824 395.761 120.96 395.209 120.336 394.306C119.712 393.404 119.375 392.22 119.395 391L120.963 292.689C120.858 286.657 121.69 280.66 123.406 275.065C125.123 269.47 127.689 264.395 130.947 260.151C134.206 255.907 138.088 252.582 142.356 250.381C146.624 248.179 151.189 247.148 155.771 247.349C160.353 247.549 164.855 248.979 169.002 251.549C173.15 254.119 176.855 257.777 179.892 262.297C182.928 266.817 185.232 272.106 186.662 277.838C188.092 283.571 188.618 289.628 188.208 295.637C187.168 310.789 186.341 376.981 186.112 396.907C186.098 398.155 185.711 399.345 185.036 400.221C184.361 401.097 183.452 401.589 182.504 401.591Z" fill="#536DFE"/>
<path d="M76.5016 241.473C76.6003 242.044 76.6646 242.624 76.694 243.208L111.231 269.433L119.626 263.072L128.575 278.492L114.545 291.654C113.412 292.717 112.047 293.268 110.656 293.223C109.264 293.178 107.921 292.541 106.829 291.406L71.2148 254.426C69.6075 255.21 67.8572 255.33 66.1967 254.772C64.5362 254.214 63.0441 253.003 61.919 251.302C60.7938 249.6 60.0889 247.488 59.898 245.247C59.7071 243.005 60.0392 240.74 60.8502 238.753C61.6613 236.765 62.9127 235.15 64.4382 234.122C65.9636 233.094 67.6907 232.701 69.3898 232.997C71.0889 233.292 72.6793 234.261 73.9497 235.775C75.2201 237.289 76.1102 239.277 76.5016 241.473Z" fill="#FFB8B8"/>
<path d="M111.706 266.811C111.81 266.141 112.022 265.508 112.329 264.955C112.636 264.403 113.03 263.944 113.484 263.61L129.333 251.946C131.438 249.808 134.102 248.856 136.74 249.299C139.378 249.742 141.775 251.543 143.406 254.308C145.037 257.073 145.768 260.576 145.44 264.05C145.112 267.523 143.751 270.684 141.655 272.839L129.018 290.11C128.658 290.603 128.221 290.988 127.737 291.238C127.253 291.489 126.734 291.599 126.215 291.562C125.696 291.524 125.189 291.34 124.729 291.021C124.268 290.703 123.866 290.258 123.548 289.716L112.386 270.675C112.068 270.133 111.843 269.507 111.725 268.841C111.608 268.174 111.601 267.482 111.706 266.811Z" fill="#536DFE"/>
<path d="M166.358 232.861C163.319 232.832 160.335 231.789 157.685 229.83C155.035 227.872 152.805 225.061 151.204 221.661C151.03 221.303 150.08 219.465 148.979 217.339C145.886 211.361 145.161 209.939 145.1 209.731C144.263 206.889 141.607 205.791 139.526 205.371C139.137 205.292 138.744 205.223 138.348 205.153C135.418 204.636 132.387 204.102 130.725 199.862C129.506 196.75 127.513 184.08 129.044 180.984C130.963 177.1 134.648 178.361 138.212 179.581C140.493 180.36 142.85 181.167 144.729 180.653C152.873 178.423 162.103 175.895 170.255 182.429C176.743 187.628 180.645 197.448 180.439 208.056C180.218 219.447 176.443 228.438 170.342 232.109L169.072 232.596L168.357 232.711C167.693 232.811 167.026 232.861 166.358 232.861Z" fill="#2F2E41"/>
<path d="M617.415 192.38C612.33 192.38 607.401 194.684 603.454 198.903C599.508 203.123 596.785 209.001 595.742 215.551C594.7 222.101 595.402 228.924 597.73 234.873C600.058 240.823 603.871 245.536 608.528 248.223C608.435 245.981 608.565 243.733 608.914 241.535C609.339 239.167 611.761 225.649 611.761 225.649C611.277 224.198 611.034 222.627 611.049 221.043C611.049 216.723 612.947 213.496 615.319 213.496C617.336 213.496 618.305 215.487 618.305 217.868C618.305 220.535 617.01 224.517 616.347 228.212C616.215 228.896 616.207 229.612 616.324 230.301C616.441 230.991 616.68 231.634 617.02 232.18C617.361 232.726 617.794 233.158 618.285 233.443C618.776 233.728 619.311 233.857 619.847 233.82C624.038 233.82 626.865 226.729 626.865 218.323C626.865 211.935 623.593 207.16 617.652 207.16C610.94 207.16 606.749 213.757 606.749 221.121C606.683 223.197 607.204 225.232 608.212 226.833C608.389 227.025 608.514 227.286 608.571 227.578C608.628 227.87 608.613 228.179 608.528 228.459C608.419 228.992 608.182 230.281 608.073 230.801C608.054 230.958 608.007 231.108 607.936 231.236C607.864 231.365 607.77 231.469 607.662 231.54C607.554 231.611 607.434 231.648 607.313 231.646C607.192 231.644 607.073 231.604 606.966 231.53C603.872 229.864 602.429 225.414 602.429 220.392C602.429 212.117 607.737 202.19 618.255 202.19C626.707 202.19 632.273 210.244 632.273 218.883C632.273 230.32 627.439 238.855 620.321 238.855C617.929 238.855 615.685 237.15 614.914 235.225C614.914 235.225 613.629 241.938 613.352 243.239C612.841 245.45 612.092 247.553 611.128 249.485C614.173 250.669 617.377 250.977 620.521 250.388C623.665 249.799 626.676 248.327 629.35 246.073C632.023 243.818 634.298 240.832 636.018 237.319C637.738 233.805 638.864 229.846 639.319 225.709C639.775 221.573 639.549 217.356 638.657 213.344C637.765 209.333 636.229 205.62 634.151 202.459C632.074 199.298 629.504 196.762 626.616 195.023C623.729 193.284 620.591 192.382 617.415 192.38Z" fill="#3F3D56"/>
<path d="M492.721 96.7901L464.24 85.2573C463.88 85.0856 463.497 85.0094 463.114 85.033C462.731 85.0566 462.355 85.1796 462.008 85.395C461.661 85.6103 461.35 85.9137 461.092 86.2877C460.834 86.6617 460.636 87.0991 460.507 87.5746L451.725 125.144C451.508 126.163 451.597 127.252 451.972 128.188C452.347 129.123 452.98 129.834 453.741 130.174L482.214 141.703C482.972 141.968 483.779 141.829 484.46 141.316C485.141 140.803 485.641 139.958 485.851 138.963L494.633 101.393C494.749 100.926 494.791 100.433 494.756 99.9436C494.722 99.4544 494.611 98.9795 494.432 98.5483C494.253 98.1172 494.009 97.7388 493.715 97.4364C493.421 97.1341 493.082 96.9141 492.721 96.7901ZM463.151 125.8L458.262 123.82L462.939 103.814L467.828 105.793L463.151 125.8ZM466.263 101.83L466.228 101.816C465.526 101.525 464.941 100.88 464.6 100.021C464.258 99.163 464.19 98.1616 464.408 97.2367C464.627 96.3118 465.115 95.5387 465.766 95.0869C466.417 94.635 467.178 94.5412 467.881 94.8261C468.585 95.1109 469.174 95.7511 469.519 96.6064C469.865 97.4618 469.938 98.4625 469.724 99.3892C469.51 100.316 469.026 101.093 468.377 101.551C467.728 102.008 466.968 102.109 466.263 101.83ZM481.019 133.035L476.13 131.056L478.687 120.116C479.299 117.495 479.007 115.417 477.238 114.7C476.683 114.482 476.091 114.496 475.542 114.739C474.994 114.983 474.516 115.445 474.176 116.06C473.927 116.516 473.744 117.029 473.637 117.572L470.974 128.968L466.085 126.988L470.761 106.981L475.65 108.961L474.999 111.745C475.681 110.912 476.521 110.336 477.431 110.078C478.341 109.82 479.286 109.889 480.169 110.278C483.378 111.577 485.155 115.345 483.752 121.347L481.019 133.035Z" fill="#3F3D56"/>
<path fill-rule="evenodd" clip-rule="evenodd" d="M56.2196 255.201C56.2188 249.649 55.0094 244.213 52.7344 239.538C50.4595 234.862 47.2143 231.142 43.3831 228.819C39.5519 226.495 35.2951 225.665 31.1166 226.427C26.9381 227.189 23.013 229.51 19.8058 233.117C16.5987 236.723 14.2438 241.464 13.02 246.777C11.7962 252.091 11.7548 257.755 12.9006 263.098C14.0464 268.441 16.3314 273.241 19.4852 276.928C22.639 280.615 26.5294 283.036 30.696 283.904V263.602H25.0897V255.201H30.696V248.799C30.696 241.518 33.9924 237.493 39.034 237.493C40.6897 237.524 42.3415 237.714 43.9762 238.062V245.212H41.1912C38.4506 245.212 37.5933 247.451 37.5933 249.752V255.202H43.715L42.7374 263.603H37.5933V283.906C42.7861 282.824 47.515 279.338 50.9295 274.076C54.3439 268.814 56.2198 262.121 56.2196 255.201L56.2196 255.201Z" fill="#3F3D56"/>
<path d="M649.622 598.942C649.622 599.222 649.537 599.491 649.386 599.689C649.236 599.888 649.031 599.999 648.818 600H0.803988C0.590757 600 0.386259 599.889 0.235482 599.69C0.084705 599.492 0 599.223 0 598.942C0 598.661 0.084705 598.392 0.235482 598.194C0.386259 597.995 0.590757 597.884 0.803988 597.884H648.818C649.031 597.885 649.236 597.996 649.386 598.195C649.537 598.393 649.622 598.662 649.622 598.942Z" fill="#3F3D56"/>
</g>
<defs>
<clipPath id="clip0">
<rect width="650" height="600" fill="white"/>
</clipPath>
</defs>
</svg>
