<svg width="600" height="504" viewBox="0 0 600 504" fill="none" xmlns="http://www.w3.org/2000/svg">
<path opacity="0.1" d="M348.482 82.9313C310.115 81.2563 273.573 65.7048 238.68 48.6868C203.787 31.6688 169.226 12.812 131.754 3.79682C107.691 -2.00241 80.1432 -2.82129 60.7343 13.3853C42.0606 29.0186 36.0257 55.9303 32.783 80.9213C30.3406 99.7334 28.906 119.521 35.593 137.127C40.2407 149.351 48.4808 159.624 54.1837 171.371C74.0253 212.107 59.9992 262.342 38.5037 302.118C28.4258 320.774 16.7177 338.596 8.93401 358.443C1.15032 378.29 -2.44807 401.062 4.36339 421.319C11.1096 441.419 27.1928 456.486 44.6157 467.102C80.0009 488.646 121.682 494.818 162.355 498.309C252.362 506.044 342.844 502.694 433.089 499.344C466.488 498.101 500.029 496.842 532.883 490.358C551.13 486.755 569.964 481.038 583.208 467.281C600.026 449.764 604.193 420.098 592.924 398.137C574.025 361.294 521.786 352.137 508.56 312.6C501.292 290.84 508.756 266.593 519.326 246.411C541.995 203.107 579.989 165.125 581.986 115.627C583.362 81.6359 565.097 47.5925 536.855 31.505C507.256 14.6434 466.203 16.765 444.376 44.6743C421.878 73.3503 382.361 84.4053 348.482 82.9313Z" fill="#536DFE"/>
</svg>
